<svg width="59" height="59" viewBox="0 0 59 59" fill="none" xmlns="http://www.w3.org/2000/svg">
<rect x="24" y="15" width="10" height="2" fill="white"/>
<rect x="24" y="20" width="10" height="2" fill="white"/>
<path fill-rule="evenodd" clip-rule="evenodd" d="M34 25H24V32H14.5L29.5 46.5L44 32H34V25Z" fill="white"/>
<path fill-rule="evenodd" clip-rule="evenodd" d="M59 29.5C59 45.7924 45.7924 59 29.5 59C13.2076 59 0 45.7924 0 29.5C0 13.2076 13.2076 0 29.5 0C45.7924 0 59 13.2076 59 29.5ZM29.5 54C43.031 54 54 43.031 54 29.5C54 15.969 43.031 5 29.5 5C15.969 5 5 15.969 5 29.5C5 43.031 15.969 54 29.5 54Z" fill="white"/>
</svg>
